<mxfile host="app.diagrams.net" modified="2023-03-19T03:44:11.035Z" agent="5.0 (Windows NT 10.0; Win64; x64) AppleWebKit/537.36 (KHTML, like Gecko) Chrome/97.0.4692.71 Safari/537.36" etag="AIE5ZKMPXHP_h9ru-SSz" version="21.0.2" type="github">
  <diagram name="第 1 页" id="zKvl5Fu6bBzE9rmJwLVw">
    <mxGraphModel dx="875" dy="521" grid="0" gridSize="10" guides="1" tooltips="1" connect="1" arrows="1" fold="1" page="1" pageScale="1" pageWidth="827" pageHeight="1169" math="0" shadow="0">
      <root>
        <mxCell id="0" />
        <mxCell id="1" parent="0" />
        <mxCell id="5CeCHFHp0-zkBW_3HNQc-16" value="" style="rounded=0;whiteSpace=wrap;html=1;comic=1;dashed=1;" vertex="1" parent="1">
          <mxGeometry x="80" y="180" width="390" height="230" as="geometry" />
        </mxCell>
        <mxCell id="5CeCHFHp0-zkBW_3HNQc-15" style="edgeStyle=orthogonalEdgeStyle;rounded=0;orthogonalLoop=1;jettySize=auto;html=1;exitX=0.5;exitY=1;exitDx=0;exitDy=0;entryX=0.5;entryY=0;entryDx=0;entryDy=0;" edge="1" parent="1" source="5CeCHFHp0-zkBW_3HNQc-2" target="5CeCHFHp0-zkBW_3HNQc-3">
          <mxGeometry relative="1" as="geometry" />
        </mxCell>
        <mxCell id="5CeCHFHp0-zkBW_3HNQc-2" value="adb shell service call blutooth_manager 5" style="rounded=1;whiteSpace=wrap;html=1;fillColor=#f5f5f5;fontColor=#333333;strokeColor=#666666;fontSize=16;fontFamily=Comic Sans MS;comic=1;" vertex="1" parent="1">
          <mxGeometry x="194" y="90" width="320" height="40" as="geometry" />
        </mxCell>
        <mxCell id="5CeCHFHp0-zkBW_3HNQc-3" value="service&lt;br style=&quot;font-size: 16px;&quot;&gt;（bin文件）" style="ellipse;whiteSpace=wrap;html=1;fillColor=#dae8fc;strokeColor=#6c8ebf;fontSize=16;fontFamily=Comic Sans MS;comic=1;" vertex="1" parent="1">
          <mxGeometry x="294" y="160" width="120" height="50" as="geometry" />
        </mxCell>
        <mxCell id="5CeCHFHp0-zkBW_3HNQc-4" value="" style="strokeWidth=2;html=1;shape=mxgraph.flowchart.annotation_2;align=left;labelPosition=right;pointerEvents=1;strokeColor=#999999;" vertex="1" parent="1">
          <mxGeometry x="220" y="240" width="50" height="100" as="geometry" />
        </mxCell>
        <mxCell id="5CeCHFHp0-zkBW_3HNQc-5" value="service.cpp" style="rounded=1;whiteSpace=wrap;html=1;fontSize=16;fillColor=#ffe6cc;strokeColor=#d79b00;comic=1;fontFamily=Comic Sans MS;" vertex="1" parent="1">
          <mxGeometry x="90" y="270" width="120" height="40" as="geometry" />
        </mxCell>
        <mxCell id="5CeCHFHp0-zkBW_3HNQc-7" value="sm-&amp;gt;checkService" style="rounded=1;whiteSpace=wrap;html=1;fontSize=14;fillColor=#d5e8d4;strokeColor=#82b366;comic=1;fontFamily=Comic Sans MS;" vertex="1" parent="1">
          <mxGeometry x="280" y="220" width="120" height="40" as="geometry" />
        </mxCell>
        <mxCell id="5CeCHFHp0-zkBW_3HNQc-9" value="writeInterfaceToken" style="rounded=1;whiteSpace=wrap;html=1;fontSize=14;fillColor=#d5e8d4;strokeColor=#82b366;comic=1;fontFamily=Comic Sans MS;" vertex="1" parent="1">
          <mxGeometry x="280" y="270" width="120" height="40" as="geometry" />
        </mxCell>
        <mxCell id="5CeCHFHp0-zkBW_3HNQc-14" style="edgeStyle=orthogonalEdgeStyle;rounded=0;orthogonalLoop=1;jettySize=auto;html=1;exitX=1;exitY=0.5;exitDx=0;exitDy=0;entryX=0;entryY=0.5;entryDx=0;entryDy=0;" edge="1" parent="1" source="5CeCHFHp0-zkBW_3HNQc-10" target="5CeCHFHp0-zkBW_3HNQc-12">
          <mxGeometry relative="1" as="geometry" />
        </mxCell>
        <mxCell id="5CeCHFHp0-zkBW_3HNQc-10" value="service-&amp;gt;transact" style="rounded=1;whiteSpace=wrap;html=1;fontSize=14;fillColor=#d5e8d4;strokeColor=#82b366;comic=1;fontFamily=Comic Sans MS;" vertex="1" parent="1">
          <mxGeometry x="280" y="320" width="120" height="40" as="geometry" />
        </mxCell>
        <mxCell id="5CeCHFHp0-zkBW_3HNQc-11" value="code是在aidl中的序号&lt;br style=&quot;font-size: 14px;&quot;&gt;IBluetoothManager.aidl" style="text;html=1;align=center;verticalAlign=middle;resizable=0;points=[];autosize=1;strokeColor=none;fillColor=none;fontSize=14;fontFamily=Comic Sans MS;" vertex="1" parent="1">
          <mxGeometry x="249" y="355" width="180" height="50" as="geometry" />
        </mxCell>
        <mxCell id="5CeCHFHp0-zkBW_3HNQc-12" value="&lt;font style=&quot;font-size: 16px;&quot;&gt;...&lt;br&gt;enable&lt;br&gt;...&lt;br&gt;disable&lt;/font&gt;" style="rounded=1;whiteSpace=wrap;html=1;comic=1;fontFamily=Comic Sans MS;fillColor=#e1d5e7;strokeColor=#9673a6;" vertex="1" parent="1">
          <mxGeometry x="490" y="220" width="170" height="100" as="geometry" />
        </mxCell>
        <mxCell id="5CeCHFHp0-zkBW_3HNQc-13" value="BluetoothManagerService" style="text;html=1;align=center;verticalAlign=middle;resizable=0;points=[];autosize=1;strokeColor=none;fillColor=none;fontSize=14;fontFamily=Comic Sans MS;" vertex="1" parent="1">
          <mxGeometry x="475" y="190" width="190" height="30" as="geometry" />
        </mxCell>
      </root>
    </mxGraphModel>
  </diagram>
</mxfile>
